<svg version="1.1" id="Layer_1" xmlns="http://www.w3.org/2000/svg" xmlns:xlink="http://www.w3.org/1999/xlink" x="0px" y="0px"
	 width="100%" viewBox="0 0 1024 1024" enable-background="new 0 0 1024 1024" xml:space="preserve">
<path fill="#000000" opacity="1.000000" stroke="none" 
	d="
M491.020264,450.783356 
	C483.437408,487.465942 467.751556,519.793396 444.184235,548.312317 
	C412.925720,586.138367 373.691315,611.749573 326.539398,625.405396 
	C298.771545,633.447327 270.479401,634.928040 241.927063,632.527527 
	C190.905548,628.238037 146.403305,608.344299 108.302643,574.467712 
	C77.396111,546.987732 55.929821,513.079346 42.843746,473.851501 
	C33.009617,444.371948 30.614159,414.202209 32.393841,383.241516 
	C34.622192,344.475250 46.903179,309.354858 67.300125,276.772522 
	C94.580513,233.194443 132.596573,202.388184 180.383438,183.944244 
	C212.945862,171.376373 246.781815,166.358414 281.786072,169.506851 
	C327.370728,173.606964 368.770142,188.590576 405.146271,216.452881 
	C440.339447,243.409134 465.828888,277.642822 481.613495,319.299835 
	C493.579224,350.878601 497.457245,383.474915 496.001068,416.826843 
	C495.510681,428.058350 492.820251,439.193817 491.020264,450.783356 
M157.694717,245.229233 
	C146.879013,252.270020 137.587830,261.045410 128.467468,270.125305 
	C100.849220,297.620941 84.167175,330.996002 77.657082,368.927155 
	C71.067604,407.320740 75.348198,444.867584 92.513634,480.457428 
	C113.716003,524.417236 146.504929,556.173340 191.215073,575.870544 
	C223.808212,590.229614 257.901245,593.484375 292.487701,588.188965 
	C325.206055,583.179504 354.915253,570.145630 380.997894,549.005554 
	C416.973755,519.846863 439.790741,482.962952 449.253265,437.686615 
	C453.949738,415.214935 453.721466,392.518433 450.085449,370.161774 
	C444.439758,335.447998 429.857849,304.672211 406.313202,278.065552 
	C377.017731,244.960175 341.526825,223.310928 297.697327,215.693573 
	C277.539886,212.190323 257.484894,211.287842 237.134155,214.209839 
	C208.406509,218.334564 182.088608,228.239044 157.694717,245.229233 
z"/>
<path fill="#000000" opacity="1.000000" stroke="none" 
	d="
M615.909668,587.127197 
	C578.983887,559.431885 553.753235,523.603577 537.555481,480.993347 
	C526.108459,450.880676 522.140625,419.699707 523.920959,387.790436 
	C526.902954,334.344666 546.798950,287.771942 581.824829,247.367584 
	C604.861328,220.793747 632.564209,200.778442 664.766724,187.065216 
	C687.410889,177.422318 711.168518,171.918839 735.738586,169.585815 
	C773.714722,165.979874 810.049683,172.765671 845.246643,186.417267 
	C867.624756,195.096878 887.815796,207.687668 905.994934,223.424683 
	C922.826843,237.995346 938.125305,253.954681 950.298584,272.699707 
	C967.365601,298.980377 978.950195,327.363708 984.578552,358.343811 
	C987.216553,372.864197 988.335693,387.323608 988.446289,401.990143 
	C988.726990,439.184814 979.863647,474.100922 963.232971,507.282196 
	C953.589050,526.523438 941.554688,544.176758 926.913513,559.694885 
	C901.695984,586.422668 871.898499,606.544739 837.151611,619.485657 
	C803.964661,631.845520 769.975037,635.302063 734.974426,632.521362 
	C690.943787,629.023315 651.517273,613.627136 615.909668,587.127197 
M860.085510,558.554260 
	C875.347412,548.506592 888.998901,536.686768 900.683838,522.559692 
	C926.153015,491.767334 941.164978,456.543213 944.523132,416.777832 
	C947.094604,386.329498 942.586243,356.647675 930.386841,328.478516 
	C910.697693,283.015045 878.453613,249.531906 833.246826,229.023193 
	C801.980103,214.838531 769.112183,209.335449 734.915771,213.424469 
	C703.284790,217.206741 674.225098,227.964752 648.087585,246.422607 
	C607.929199,274.781769 582.951355,313.143951 571.599670,360.813904 
	C566.194824,383.510803 565.265930,406.409454 568.755920,429.243622 
	C572.376282,452.931091 580.618652,475.355896 592.859924,496.017548 
	C610.431885,525.676880 633.877991,549.664978 664.227661,566.390503 
	C694.119812,582.863953 725.904602,591.061584 760.411194,590.205017 
	C796.711914,589.303833 829.233948,578.146973 860.085510,558.554260 
z"/>
<path fill="#000000" opacity="1.000000" stroke="none" 
	d="
M423.000061,760.654663 
	C531.821228,760.655029 640.142334,760.655518 748.463440,760.656677 
	C756.332214,760.656738 756.476318,760.663452 756.241455,768.576965 
	C755.099731,807.059082 755.364868,845.552246 755.215027,884.042358 
	C755.158447,898.578430 752.640320,912.439331 741.493164,922.884033 
	C726.764526,936.684509 709.276733,945.616882 689.175232,947.795166 
	C664.488525,950.470459 640.496521,947.311157 618.899414,933.968140 
	C608.081848,927.284912 600.016968,917.697083 594.391663,906.243652 
	C592.681641,902.761963 592.631409,898.853394 592.635742,894.982361 
	C592.672974,861.819458 592.656311,828.656494 592.651794,795.493591 
	C592.650757,787.962830 592.643494,787.941833 584.880188,787.942566 
	C479.225464,787.952820 373.570740,787.971069 267.916016,787.980896 
	C259.133911,787.981750 259.129303,787.960266 259.097015,779.092957 
	C259.081848,774.926819 259.268768,770.750488 259.035950,766.597168 
	C258.787384,762.163147 260.296143,760.515869 265.019196,760.553955 
	C291.347839,760.766235 317.679108,760.653992 344.009460,760.653748 
	C370.173004,760.653503 396.336517,760.654480 423.000061,760.654663 
M702.017090,921.615601 
	C709.109680,918.631042 715.917969,915.060425 721.841858,910.155029 
	C728.372498,904.747192 732.607849,897.831482 732.637207,889.074280 
	C732.744812,856.927002 732.667053,824.778992 732.819824,792.631958 
	C732.839722,788.446350 731.275696,787.041992 727.260559,787.101868 
	C717.268616,787.250793 707.273010,787.148071 697.278870,787.152161 
	C689.352417,787.155396 689.373291,787.159302 689.337219,795.109863 
	C689.237549,817.096680 689.046936,839.083496 689.059204,861.070190 
	C689.062195,866.395813 687.157288,870.143005 682.023743,871.827759 
	C671.580078,875.255005 663.771240,869.556885 663.658630,858.624023 
	C663.432312,836.643372 663.099548,814.663635 662.922791,792.682617 
	C662.894958,789.221619 662.437439,786.996521 658.108459,787.065308 
	C645.119141,787.271790 632.124390,787.242004 619.132996,787.138428 
	C615.730774,787.111328 614.392517,788.289062 614.401306,791.767944 
	C614.481323,823.415771 614.260803,855.065979 614.629517,886.709778 
	C614.696411,892.444153 614.093201,898.882690 618.712219,903.781433 
	C626.965027,912.534302 636.562073,919.202271 648.183167,922.679688 
	C665.959717,927.998962 683.649597,927.268372 702.017090,921.615601 
z"/>
<path fill="#000000" opacity="1.000000" stroke="none" 
	d="
M267.589813,362.604492 
	C278.018860,350.415985 289.704773,339.944794 300.621674,328.723328 
	C305.501617,323.707214 310.652374,318.949158 315.422058,313.833252 
	C318.399078,310.640137 321.153595,310.617096 323.870880,313.658936 
	C332.762360,323.612488 342.460236,332.770264 351.910797,342.166595 
	C355.066193,345.303925 352.983368,347.276062 351.017242,349.224640 
	C341.316376,358.838867 331.478149,368.314331 321.740997,377.892212 
	C315.088318,384.436066 308.599548,391.148254 301.879730,397.621399 
	C299.106384,400.292908 299.030212,402.274811 301.855438,405.039825 
	C318.287872,421.122101 334.529358,437.399628 350.982971,453.459961 
	C354.032318,456.436462 353.752869,458.744049 351.032532,461.456177 
	C343.479919,468.986115 335.948914,476.537750 328.417999,484.089447 
	C327.360870,485.149414 326.267242,486.189819 325.335846,487.355377 
	C321.210114,492.518250 319.984406,492.686371 315.294312,488.003204 
	C300.199829,472.931030 285.171051,457.793091 270.104584,442.692871 
	C263.615692,436.189484 263.571625,436.173035 257.262482,442.469757 
	C242.046509,457.655853 226.771103,472.784515 211.735352,488.147430 
	C208.460373,491.493652 205.980545,491.388916 202.954834,488.346497 
	C193.679031,479.019379 184.455353,469.638428 175.053528,460.439758 
	C172.049866,457.500977 172.895294,455.606049 175.594955,453.127075 
	C192.172089,437.905121 207.566605,421.478973 223.606430,405.707947 
	C227.882980,401.503113 227.940964,400.513214 223.727890,396.344849 
	C207.621307,380.409180 192.134308,363.842133 175.317474,348.631989 
	C172.382477,345.977448 172.505219,343.672302 175.148865,341.063782 
	C184.280945,332.053070 193.447906,323.076599 202.486313,313.972656 
	C205.377930,311.060059 208.103088,311.302277 210.730820,313.896057 
	C222.225708,325.242493 234.403503,335.889832 245.221024,347.934784 
	C249.990173,353.245087 255.314224,358.053741 260.171051,363.289825 
	C262.966705,366.303833 265.141266,366.060333 267.589813,362.604492 
z"/>
<path fill="#000000" opacity="1.000000" stroke="none" 
	d="
M721.951782,332.051361 
	C732.597534,342.870667 743.044556,353.389465 753.363647,364.032379 
	C755.798828,366.544037 757.396851,366.475372 759.815002,363.863678 
	C775.664612,346.745850 793.061707,331.128754 808.626343,313.734253 
	C811.584839,310.427948 813.671387,310.636047 816.699768,313.755005 
	C826.089966,323.426056 835.689209,332.897980 845.366089,342.283478 
	C847.287537,344.147095 847.186340,345.574585 845.842285,347.422821 
	C845.450806,347.961212 845.075684,348.527344 844.603271,348.988892 
	C826.971497,366.216370 810.184998,384.305176 791.832947,400.799225 
	C791.593018,401.014862 791.441162,401.328552 792.632019,400.227234 
	C799.833435,408.244659 806.829224,416.459473 814.287537,424.230377 
	C823.948425,434.296051 833.841309,444.150848 843.924561,453.792969 
	C847.391235,457.107971 846.918274,459.116577 843.763428,462.182465 
	C834.226318,471.450409 824.876953,480.915955 815.616272,490.461517 
	C812.787598,493.377167 810.842896,491.702209 808.913574,489.769928 
	C804.448730,485.298218 800.188171,480.622406 795.720703,476.153442 
	C783.946533,464.375275 772.044861,452.723877 760.338196,440.879425 
	C757.639526,438.148865 755.680725,437.898254 752.893066,440.722198 
	C736.747192,457.078033 720.399597,473.235626 704.337830,489.672882 
	C701.157471,492.927582 699.022583,492.713074 696.122681,489.703827 
	C687.336792,480.586700 678.412842,471.602722 669.585083,462.525665 
	C665.010681,457.822083 664.982056,456.783752 669.779419,452.513580 
	C686.596008,437.545074 701.546936,420.707733 717.626526,405.006012 
	C720.884399,401.824707 720.474670,400.043030 717.374695,397.077301 
	C701.966431,382.336090 686.720215,367.423492 671.548096,352.438354 
	C664.316040,345.295410 664.554932,345.272980 671.961487,338.171448 
	C680.138794,330.330811 688.090576,322.255157 696.147644,314.289062 
	C699.987061,310.493042 701.581299,310.395660 705.089111,314.517670 
	C710.283508,320.621552 715.854248,326.337799 721.951782,332.051361 
z"/>
</svg>